<svg xmlns="http://www.w3.org/2000/svg" viewBox="0 0 128 128" role="img" aria-label="Hand sign for the letter H">
  <title>Letter H</title>
  <defs>
    <linearGradient id="inkH" x1="0" y1="0" x2="1" y2="1">
      <stop offset="0%" stop-color="#8b8cf7" />
      <stop offset="100%" stop-color="#c084fc" />
    </linearGradient>
  </defs>
  <g stroke="url(#inkH)" stroke-width="5.2" stroke-linecap="round" stroke-linejoin="round" fill="none" opacity="0.92">
    <line x1="114.00" y1="92.02" x2="107.43" y2="58.06" />
    <line x1="107.43" y1="58.06" x2="91.43" y2="40.14" />
    <line x1="91.43" y1="40.14" x2="75.74" y2="39.76" />
    <line x1="75.74" y1="39.76" x2="64.50" y2="49.26" />
    <line x1="114.00" y1="92.02" x2="73.55" y2="35.98" />
    <line x1="73.55" y1="35.98" x2="46.76" y2="38.38" />
    <line x1="46.76" y1="38.38" x2="32.20" y2="41.67" />
    <line x1="32.20" y1="41.67" x2="20.99" y2="42.02" />
    <line x1="73.55" y1="35.98" x2="70.50" y2="50.78" />
    <line x1="70.50" y1="50.78" x2="41.48" y2="53.21" />
    <line x1="41.48" y1="53.21" x2="25.89" y2="52.89" />
    <line x1="25.89" y1="52.89" x2="14.00" y2="52.75" />
    <line x1="70.50" y1="50.78" x2="69.88" y2="70.27" />
    <line x1="69.88" y1="70.27" x2="55.10" y2="73.70" />
    <line x1="55.10" y1="73.70" x2="63.76" y2="74.07" />
    <line x1="63.76" y1="74.07" x2="72.42" y2="73.22" />
    <line x1="69.88" y1="70.27" x2="70.55" y2="89.35" />
    <line x1="70.55" y1="89.35" x2="64.29" y2="88.00" />
    <line x1="64.29" y1="88.00" x2="71.27" y2="87.19" />
    <line x1="71.27" y1="87.19" x2="78.32" y2="85.97" />
    <line x1="114.00" y1="92.02" x2="70.55" y2="89.35" />
  </g>
  <circle cx="114.00" cy="92.02" r="3.32" fill="url(#inkH)" />
  <circle cx="107.43" cy="58.06" r="3.00" fill="url(#inkH)" />
  <circle cx="91.43" cy="40.14" r="3.02" fill="url(#inkH)" />
  <circle cx="75.74" cy="39.76" r="3.13" fill="url(#inkH)" />
  <circle cx="64.50" cy="49.26" r="4.71" fill="#f9a8d4" />
  <circle cx="73.55" cy="35.98" r="3.70" fill="url(#inkH)" />
  <circle cx="46.76" cy="38.38" r="3.67" fill="url(#inkH)" />
  <circle cx="32.20" cy="41.67" r="3.71" fill="url(#inkH)" />
  <circle cx="20.99" cy="42.02" r="5.19" fill="#f9a8d4" />
  <circle cx="70.50" cy="50.78" r="3.95" fill="url(#inkH)" />
  <circle cx="41.48" cy="53.21" r="4.12" fill="url(#inkH)" />
  <circle cx="25.89" cy="52.89" r="4.22" fill="url(#inkH)" />
  <circle cx="14.00" cy="52.75" r="5.70" fill="#f9a8d4" />
  <circle cx="69.88" cy="70.27" r="4.08" fill="url(#inkH)" />
  <circle cx="55.10" cy="73.70" r="4.13" fill="url(#inkH)" />
  <circle cx="63.76" cy="74.07" r="4.00" fill="url(#inkH)" />
  <circle cx="72.42" cy="73.22" r="5.36" fill="#f9a8d4" />
  <circle cx="70.55" cy="89.35" r="4.05" fill="url(#inkH)" />
  <circle cx="64.29" cy="88.00" r="3.99" fill="url(#inkH)" />
  <circle cx="71.27" cy="87.19" r="3.67" fill="url(#inkH)" />
  <circle cx="78.32" cy="85.97" r="4.87" fill="#f9a8d4" />
  <circle cx="114.00" cy="92.02" r="8.5" fill="none" stroke="url(#inkH)" stroke-width="1.6" opacity="0.45" />
</svg>
