<svg xmlns="http://www.w3.org/2000/svg" viewBox="0 0 128 128" role="img" aria-label="Hand sign for the letter S">
  <title>Letter S</title>
  <defs>
    <linearGradient id="inkS" x1="0" y1="0" x2="1" y2="1">
      <stop offset="0%" stop-color="#8b8cf7" />
      <stop offset="100%" stop-color="#c084fc" />
    </linearGradient>
  </defs>
  <g stroke="url(#inkS)" stroke-width="5.2" stroke-linecap="round" stroke-linejoin="round" fill="none" opacity="0.92">
    <line x1="84.38" y1="114.00" x2="57.30" y2="99.01" />
    <line x1="57.30" y1="99.01" x2="34.78" y2="67.89" />
    <line x1="34.78" y1="67.89" x2="27.46" y2="34.89" />
    <line x1="27.46" y1="34.89" x2="40.21" y2="14.78" />
    <line x1="84.38" y1="114.00" x2="50.75" y2="31.83" />
    <line x1="50.75" y1="31.83" x2="43.21" y2="19.74" />
    <line x1="43.21" y1="19.74" x2="47.34" y2="46.19" />
    <line x1="47.34" y1="46.19" x2="51.83" y2="47.52" />
    <line x1="50.75" y1="31.83" x2="66.52" y2="28.93" />
    <line x1="66.52" y1="28.93" x2="59.31" y2="16.72" />
    <line x1="59.31" y1="16.72" x2="62.62" y2="51.23" />
    <line x1="62.62" y1="51.23" x2="66.44" y2="49.33" />
    <line x1="66.52" y1="28.93" x2="83.78" y2="29.56" />
    <line x1="83.78" y1="29.56" x2="76.33" y2="14.00" />
    <line x1="76.33" y1="14.00" x2="77.16" y2="47.31" />
    <line x1="77.16" y1="47.31" x2="81.19" y2="48.93" />
    <line x1="83.78" y1="29.56" x2="100.54" y2="33.11" />
    <line x1="100.54" y1="33.11" x2="94.10" y2="18.08" />
    <line x1="94.10" y1="18.08" x2="91.95" y2="40.85" />
    <line x1="91.95" y1="40.85" x2="94.50" y2="45.27" />
    <line x1="84.38" y1="114.00" x2="100.54" y2="33.11" />
  </g>
  <circle cx="84.38" cy="114.00" r="3.00" fill="url(#inkS)" />
  <circle cx="57.30" cy="99.01" r="3.67" fill="url(#inkS)" />
  <circle cx="34.78" cy="67.89" r="3.96" fill="url(#inkS)" />
  <circle cx="27.46" cy="34.89" r="4.24" fill="url(#inkS)" />
  <circle cx="40.21" cy="14.78" r="5.70" fill="#f9a8d4" />
  <circle cx="50.75" cy="31.83" r="3.04" fill="url(#inkS)" />
  <circle cx="43.21" cy="19.74" r="3.75" fill="url(#inkS)" />
  <circle cx="47.34" cy="46.19" r="3.93" fill="url(#inkS)" />
  <circle cx="51.83" cy="47.52" r="5.38" fill="#f9a8d4" />
  <circle cx="66.52" cy="28.93" r="3.02" fill="url(#inkS)" />
  <circle cx="59.31" cy="16.72" r="3.82" fill="url(#inkS)" />
  <circle cx="62.62" cy="51.23" r="3.77" fill="url(#inkS)" />
  <circle cx="66.44" cy="49.33" r="4.93" fill="#f9a8d4" />
  <circle cx="83.78" cy="29.56" r="3.18" fill="url(#inkS)" />
  <circle cx="76.33" cy="14.00" r="4.01" fill="url(#inkS)" />
  <circle cx="77.16" cy="47.31" r="3.58" fill="url(#inkS)" />
  <circle cx="81.19" cy="48.93" r="4.47" fill="#f9a8d4" />
  <circle cx="100.54" cy="33.11" r="3.41" fill="url(#inkS)" />
  <circle cx="94.10" cy="18.08" r="3.80" fill="url(#inkS)" />
  <circle cx="91.95" cy="40.85" r="3.46" fill="url(#inkS)" />
  <circle cx="94.50" cy="45.27" r="4.48" fill="#f9a8d4" />
  <circle cx="84.38" cy="114.00" r="8.5" fill="none" stroke="url(#inkS)" stroke-width="1.6" opacity="0.45" />
</svg>
