<svg xmlns="http://www.w3.org/2000/svg" viewBox="0 0 128 128" role="img" aria-label="Hand sign for the letter U">
  <title>Letter U</title>
  <defs>
    <linearGradient id="inkU" x1="0" y1="0" x2="1" y2="1">
      <stop offset="0%" stop-color="#8b8cf7" />
      <stop offset="100%" stop-color="#c084fc" />
    </linearGradient>
  </defs>
  <g stroke="url(#inkU)" stroke-width="5.2" stroke-linecap="round" stroke-linejoin="round" fill="none" opacity="0.92">
    <line x1="70.85" y1="114.00" x2="58.24" y2="109.04" />
    <line x1="58.24" y1="109.04" x2="49.25" y2="94.03" />
    <line x1="49.25" y1="94.03" x2="54.01" y2="81.71" />
    <line x1="54.01" y1="81.71" x2="62.89" y2="73.97" />
    <line x1="70.85" y1="114.00" x2="52.30" y2="65.93" />
    <line x1="52.30" y1="65.93" x2="50.12" y2="45.03" />
    <line x1="50.12" y1="45.03" x2="49.35" y2="31.76" />
    <line x1="49.35" y1="31.76" x2="49.35" y2="20.07" />
    <line x1="52.30" y1="65.93" x2="61.57" y2="64.01" />
    <line x1="61.57" y1="64.01" x2="58.06" y2="40.78" />
    <line x1="58.06" y1="40.78" x2="56.27" y2="26.20" />
    <line x1="56.27" y1="26.20" x2="55.08" y2="14.00" />
    <line x1="61.57" y1="64.01" x2="70.54" y2="67.41" />
    <line x1="70.54" y1="67.41" x2="68.43" y2="56.90" />
    <line x1="68.43" y1="56.90" x2="66.96" y2="72.81" />
    <line x1="66.96" y1="72.81" x2="66.38" y2="84.48" />
    <line x1="70.54" y1="67.41" x2="78.75" y2="73.80" />
    <line x1="78.75" y1="73.80" x2="76.25" y2="67.51" />
    <line x1="76.25" y1="67.51" x2="73.85" y2="78.24" />
    <line x1="73.85" y1="78.24" x2="72.80" y2="87.04" />
    <line x1="70.85" y1="114.00" x2="78.75" y2="73.80" />
  </g>
  <circle cx="70.85" cy="114.00" r="3.00" fill="url(#inkU)" />
  <circle cx="58.24" cy="109.04" r="3.53" fill="url(#inkU)" />
  <circle cx="49.25" cy="94.03" r="3.80" fill="url(#inkU)" />
  <circle cx="54.01" cy="81.71" r="4.08" fill="url(#inkU)" />
  <circle cx="62.89" cy="73.97" r="5.70" fill="#f9a8d4" />
  <circle cx="52.30" cy="65.93" r="3.33" fill="url(#inkU)" />
  <circle cx="50.12" cy="45.03" r="3.74" fill="url(#inkU)" />
  <circle cx="49.35" cy="31.76" r="4.00" fill="url(#inkU)" />
  <circle cx="49.35" cy="20.07" r="5.58" fill="#f9a8d4" />
  <circle cx="61.57" cy="64.01" r="3.37" fill="url(#inkU)" />
  <circle cx="58.06" cy="40.78" r="3.80" fill="url(#inkU)" />
  <circle cx="56.27" cy="26.20" r="4.07" fill="url(#inkU)" />
  <circle cx="55.08" cy="14.00" r="5.59" fill="#f9a8d4" />
  <circle cx="70.54" cy="67.41" r="3.46" fill="url(#inkU)" />
  <circle cx="68.43" cy="56.90" r="4.10" fill="url(#inkU)" />
  <circle cx="66.96" cy="72.81" r="4.20" fill="url(#inkU)" />
  <circle cx="66.38" cy="84.48" r="5.47" fill="#f9a8d4" />
  <circle cx="78.75" cy="73.80" r="3.59" fill="url(#inkU)" />
  <circle cx="76.25" cy="67.51" r="4.13" fill="url(#inkU)" />
  <circle cx="73.85" cy="78.24" r="4.15" fill="url(#inkU)" />
  <circle cx="72.80" cy="87.04" r="5.44" fill="#f9a8d4" />
  <circle cx="70.85" cy="114.00" r="8.5" fill="none" stroke="url(#inkU)" stroke-width="1.6" opacity="0.45" />
</svg>
